<?xml version="1.0" encoding="UTF-8" standalone="no"?>
<svg
   xmlns:dc="http://purl.org/dc/elements/1.1/"
   xmlns:cc="http://creativecommons.org/ns#"
   xmlns:rdf="http://www.w3.org/1999/02/22-rdf-syntax-ns#"
   xmlns:svg="http://www.w3.org/2000/svg"
   xmlns="http://www.w3.org/2000/svg"
   xmlns:sodipodi="http://sodipodi.sourceforge.net/DTD/sodipodi-0.dtd"
   xmlns:inkscape="http://www.inkscape.org/namespaces/inkscape"
   version="1.1"
   id="svg2"
   xml:space="preserve"
   width="318.66666"
   height="214.66667"
   viewBox="0 0 318.66666 214.66667"
   sodipodi:docname="tst-fig.svg"
   inkscape:version="1.0.1 (3bc2e813f5, 2020-09-07)"><metadata
     id="metadata8"><rdf:RDF><cc:Work
         rdf:about=""><dc:format>image/svg+xml</dc:format><dc:type
           rdf:resource="http://purl.org/dc/dcmitype/StillImage" /><dc:title></dc:title></cc:Work></rdf:RDF></metadata><defs
     id="defs6" /><sodipodi:namedview
     pagecolor="#ffffff"
     bordercolor="#666666"
     borderopacity="1"
     objecttolerance="10"
     gridtolerance="10"
     guidetolerance="10"
     inkscape:pageopacity="0"
     inkscape:pageshadow="2"
     inkscape:window-width="1920"
     inkscape:window-height="1016"
     id="namedview4"
     showgrid="false"
     inkscape:zoom="2.4210721"
     inkscape:cx="138.71206"
     inkscape:cy="115.86219"
     inkscape:window-x="0"
     inkscape:window-y="27"
     inkscape:window-maximized="1"
     inkscape:current-layer="g10" /><g
     id="g10"
     inkscape:groupmode="layer"
     inkscape:label="ink_ext_XXXXXX"
     transform="matrix(1.3333333,0,0,-1.3333333,0,214.66667)"><path
       d="m 156.17696,56.660077 -0.0495,0.112528 -2.96804,6.505194 -2.97163,6.751675 -3.01305,6.751675 -3.01755,6.52662 -2.97164,6.122239 -3.01305,5.580665 -3.01754,4.905137 -2.97164,4.0511 -3.01305,3.19669 -3.01755,2.11732 -2.97164,1.12528 h -3.01304 l -2.97164,-1.12528 -3.01755,-2.11732 -3.01305,-3.19669 -2.97163,-4.0511 -3.01755,-4.905137 -3.01305,-5.580665 -2.971818,-6.122239 -3.017459,-6.52662 -3.012957,-6.751675 -2.971818,-6.751675 -3.017458,-6.617722 -1.596187,-3.414458 m 70.601097,3.414458 -0.0495,0.112528 0.0495,-0.112528 2.97074,-6.343785 3.01395,-5.809231 3.01755,-5.222016 2.96713,-4.455385 3.01755,-3.600894 3.01755,-2.563836 2.97074,-1.575391 3.01395,-0.495843 3.01754,0.629076 2.97074,1.667214 3.01395,2.746671 2.97164,3.688125 3.01304,4.547209 3.01755,5.310237 1.29722,2.573739 m -155.436165,-0.298874 1.146704,-2.274865 3.016829,-5.310237 2.838494,-4.849594 3.146911,-3.38574 3.016829,-2.746671 2.967946,-1.667214 3.017459,-0.629076 3.013317,0.495843 2.971458,1.575391 3.017459,2.563836 3.016828,3.600894 2.967947,4.455385 3.017458,5.222016 3.016829,5.809231 1.37176,2.929327 m 0,0 -1.37176,-2.929327"
       style="fill:none;stroke:#000000;stroke-width:1.28282;stroke-linecap:butt;stroke-linejoin:miter;stroke-miterlimit:3.8;stroke-dasharray:none;stroke-opacity:1"
       id="path14" /><path
       d="M 23.534358,13.357594 H 226.30968 V 156.62635 H 23.534358 Z"
       style="fill:none;stroke:#000000;stroke-width:1.04989;stroke-linecap:butt;stroke-linejoin:miter;stroke-miterlimit:3.8;stroke-dasharray:none;stroke-opacity:1"
       id="path16" /><text
       transform="scale(1,-1)"
       style="font-variant:normal;font-weight:normal;font-size:8.55212px;font-family:'Bitstream Vera Sans';-inkscape-font-specification:BitstreamVeraSans-Roman;writing-mode:lr-tb;fill:#000000;fill-opacity:1;fill-rule:nonzero;stroke:none;stroke-width:0.900223"
       id="text22"
       x="102.87743"
       y="-117.16328"><tspan
         x="102.87743 106.62956 111.04426 115.61739 120.19054 122.19263 126.62173 128.9119 133.48503 137.89253 139.89462 144.46056"
         y="-117.16328"
         sodipodi:role="line"
         id="tspan20"
         style="font-size:8.55212px;stroke-width:0.900223">saddle point</tspan></text><text
       transform="scale(1,-1)"
       style="font-variant:normal;font-weight:normal;font-size:8.55212px;font-family:'Bitstream Vera Sans';-inkscape-font-specification:BitstreamVeraSans-Roman;writing-mode:lr-tb;fill:#000000;fill-opacity:1;fill-rule:nonzero;stroke:none;stroke-width:0.900223"
       id="text28"
       x="45.290596"
       y="-18.231659"><tspan
         x="45.290596 49.705311 52.528423 56.935932 63.950497 66.240677 69.992821 71.994919 74.818031"
         y="-18.231659"
         sodipodi:role="line"
         id="tspan24"
         style="font-size:8.55212px;stroke-width:0.900223">atom site</tspan><tspan
         sodipodi:role="line"
         id="tspan26"
         y="-18.297419"
         x="158.85828 163.12175 167.53645 171.49745 175.91217 180.47812 184.43912 188.70259 190.99277 194.74492 196.74702 199.57013"
         style="font-size:8.55212px;stroke-width:0.900223">vacancy site</tspan></text><text
       transform="matrix(0,1,1,0,0,0)"
       style="font-variant:normal;font-weight:normal;font-size:8.55212px;font-family:'Bitstream Vera Sans';-inkscape-font-specification:BitstreamVeraSans-Roman;writing-mode:lr-tb;fill:#000000;fill-opacity:1;fill-rule:nonzero;stroke:none;stroke-width:0.900223"
       id="text32"
       x="72.274094"
       y="17.968069"><tspan
         x="72.274094 76.825638 81.391586 85.820709 88.651176 93.224335"
         y="17.968069"
         sodipodi:role="line"
         id="tspan30"
         style="font-size:8.55212px;stroke-width:0.900223">Energy</tspan></text><text
       style="font-variant:normal;font-weight:normal;font-size:9.5px;font-family:'Bitstream Vera Sans';-inkscape-font-specification:BitstreamVeraSans-Roman;writing-mode:lr-tb;fill:#000000;fill-opacity:1;fill-rule:nonzero;stroke:none;stroke-width:0.999998"
       id="text22-3"
       x="76.835388"
       y="-2.3799024"
       transform="scale(1,-1)"><tspan
         sodipodi:role="line"
         id="tspan20-6"
         style="font-size:9.5px;stroke-width:0.999998"
         x="76.835388"
         y="-2.3799024">reaction coordinate</tspan></text></g></svg>
